<svg width="882" height="608" viewBox="0 0 882 608" fill="none" xmlns="http://www.w3.org/2000/svg">
<path d="M263.552 287.724L139 200.491V453.987L163.074 453.773V258.718L239.478 307.562V453.934H263.445L263.552 449.055V385.681H326.23V385.627H350.197V287.724H263.552ZM326.23 361.714H263.552V311.691H326.23V361.714Z" fill="#181C21"/>
<path d="M275.187 126.555L382.153 233.519C382.903 234.27 384.083 234.27 384.833 233.519L399.203 219.15C399.953 218.399 399.953 217.22 399.203 216.469L275.187 92.4555C274.436 91.7049 273.257 91.7049 272.506 92.4555L181.679 183.335C180.928 184.085 180.928 185.265 181.679 186.015L196.048 200.384C196.799 201.135 197.978 201.135 198.729 200.384L272.56 126.555C273.257 125.858 274.49 125.858 275.187 126.555Z" fill="#181C21"/>
<path d="M267.198 184.943H245.859V206.282H267.198V184.943Z" fill="#181C21"/>
<path d="M302.639 184.943H281.3V206.282H302.639V184.943Z" fill="#181C21"/>
<path d="M267.198 218.508H245.859V239.847H267.198V218.508Z" fill="#181C21"/>
<path d="M302.639 218.508H281.3V239.847H302.639V218.508Z" fill="#181C21"/>
<path d="M403.76 270.085V428.574C403.76 429.325 404.404 429.968 405.154 429.968H493.944C494.695 429.968 495.338 430.612 495.338 431.362V452.594C495.338 453.345 494.695 453.988 493.944 453.988H381.134C380.383 453.988 379.74 453.345 379.74 452.594V270.085C379.74 269.335 380.383 268.691 381.134 268.691H402.366C403.117 268.691 403.76 269.335 403.76 270.085Z" fill="#181C21"/>
<path d="M512.174 373.349C512.174 369.274 515.444 366.004 519.734 366.004C524.023 366.004 527.294 369.114 527.294 373.081C527.294 377.263 524.184 380.534 519.734 380.534C515.391 380.534 512.174 377.371 512.174 373.349ZM514.104 392.383H525.256V453.934H514.104V392.383Z" fill="#181C21"/>
<path d="M604.985 418.548V453.988H593.832V419.835C593.832 407.771 587.774 401.82 577.211 401.82C565.362 401.82 557.695 408.897 557.695 422.247V453.988H546.542V392.383H557.212V401.659C561.769 395.386 569.651 391.793 579.409 391.793C594.422 391.793 604.985 400.426 604.985 418.548Z" fill="#181C21"/>
<path d="M649.648 425.25L636.887 437.099V453.935H625.734V367.774H636.887V423.052L670.451 392.384H683.909L658.012 417.851L686.482 453.988H672.757L649.648 425.25Z" fill="#181C21"/>
<path d="M468.393 239.462V273.334H464.419L444.089 248.071V273.334H439.255V239.462H443.228L463.559 264.725V239.462H468.393Z" fill="#181C21"/>
<path d="M477.068 239.728C477.068 238.039 478.426 236.682 480.214 236.682C482.002 236.682 483.359 237.973 483.359 239.629C483.359 241.383 482.035 242.741 480.214 242.741C478.426 242.741 477.068 241.45 477.068 239.728ZM477.896 247.674H482.531V273.335H477.896V247.674Z" fill="#181C21"/>
<path d="M515.941 247.676V269.827C515.941 278.866 511.338 283.005 502.63 283.005C497.928 283.005 493.193 281.714 490.379 279.164L492.597 275.588C494.981 277.608 498.69 278.932 502.464 278.932C508.524 278.932 511.272 276.118 511.272 270.323V268.304C509.054 270.953 505.709 272.277 502.034 272.277C494.617 272.277 489.021 267.244 489.021 259.827C489.021 252.41 494.65 247.444 502.034 247.444C505.875 247.444 509.352 248.834 511.537 251.649V247.676H515.941ZM511.371 259.827C511.371 254.828 507.696 251.516 502.564 251.516C497.398 251.516 493.723 254.861 493.723 259.827C493.723 264.761 497.398 268.204 502.564 268.204C507.696 268.204 511.371 264.761 511.371 259.827Z" fill="#181C21"/>
<path d="M547.893 262.046H527.066C527.629 266.549 531.271 269.562 536.37 269.562C539.383 269.562 541.9 268.535 543.787 266.449L546.337 269.463C544.019 272.178 540.476 273.634 536.238 273.634C527.96 273.634 522.43 268.171 522.43 260.523C522.43 252.94 527.894 247.444 535.311 247.444C542.728 247.444 547.992 252.775 547.992 260.655C547.992 261.052 547.926 261.615 547.893 262.046ZM527.066 258.702H543.522C543.026 254.397 539.781 251.351 535.278 251.351C530.841 251.351 527.563 254.364 527.066 258.702Z" fill="#181C21"/>
<path d="M568.224 247.444V251.947C567.826 251.914 567.495 251.914 567.164 251.914C562.164 251.914 559.085 254.96 559.085 260.589V273.37H554.449V247.709H558.886V252.013C560.509 249 563.72 247.444 568.224 247.444Z" fill="#181C21"/>
<path d="M573.091 239.728C573.091 238.039 574.448 236.682 576.236 236.682C578.024 236.682 579.382 237.973 579.382 239.629C579.382 241.383 578.058 242.741 576.236 242.741C574.448 242.741 573.091 241.45 573.091 239.728ZM573.919 247.674H578.554V273.335H573.919V247.674Z" fill="#181C21"/>
<path d="M607.758 257.841V273.336H603.355V269.959C601.798 272.277 598.951 273.634 594.944 273.634C589.15 273.634 585.441 270.522 585.441 266.085C585.441 261.979 588.09 258.569 595.739 258.569H603.09V257.642C603.09 253.735 600.805 251.45 596.203 251.45C593.156 251.45 590.044 252.51 588.057 254.198L586.137 250.722C588.786 248.603 592.627 247.444 596.732 247.444C603.785 247.444 607.758 250.821 607.758 257.841ZM603.123 265.489V261.913H595.971C591.368 261.913 590.077 263.701 590.077 265.887C590.077 268.436 592.196 270.058 595.739 270.058C599.183 270.025 601.964 268.436 603.123 265.489Z" fill="#181C21"/>
<path d="M475.118 315.274C475.118 323.145 469.41 327.931 459.979 327.931H451.008V338.922H445.832V302.652H459.979C469.41 302.652 475.118 307.403 475.118 315.274ZM469.942 315.274C469.942 310.097 466.467 307.155 459.837 307.155H451.044V323.429H459.837C466.467 323.429 469.942 320.486 469.942 315.274Z" fill="#181C21"/>
<path d="M496.321 311.197V316.019C495.895 315.948 495.541 315.948 495.186 315.948C489.832 315.948 486.535 319.21 486.535 325.237V338.923H481.571V311.445H486.322V316.054C488.095 312.863 491.499 311.197 496.321 311.197Z" fill="#181C21"/>
<path d="M499.654 325.202C499.654 317.011 505.716 311.197 513.942 311.197C522.168 311.197 528.195 317.011 528.195 325.202C528.195 333.392 522.168 339.242 513.942 339.242C505.716 339.242 499.654 333.392 499.654 325.202ZM523.161 325.202C523.161 319.351 519.225 315.558 513.942 315.558C508.659 315.558 504.653 319.351 504.653 325.202C504.653 331.052 508.659 334.881 513.942 334.881C519.225 334.881 523.161 331.052 523.161 325.202Z" fill="#181C21"/>
<path d="M563.545 325.202C563.545 333.64 557.695 339.242 549.646 339.242C545.746 339.242 542.342 337.753 540.073 334.774V348.992H535.109V311.445H539.86V315.806C542.094 312.757 545.604 311.197 549.646 311.197C557.695 311.197 563.545 316.799 563.545 325.202ZM558.51 325.202C558.51 319.387 554.504 315.558 549.221 315.558C543.973 315.558 540.002 319.387 540.002 325.202C540.002 331.052 544.009 334.881 549.221 334.881C554.539 334.881 558.51 331.052 558.51 325.202Z" fill="#181C21"/>
<path d="M595.171 326.832H572.87C573.472 331.654 577.373 334.881 582.833 334.881C586.059 334.881 588.754 333.782 590.775 331.548L593.505 334.774C591.023 337.682 587.229 339.242 582.691 339.242C573.827 339.242 567.906 333.392 567.906 325.202C567.906 317.082 573.756 311.197 581.698 311.197C589.64 311.197 595.278 316.905 595.278 325.343C595.278 325.769 595.207 326.372 595.171 326.832ZM572.87 323.287H590.491C589.959 318.678 586.485 315.416 581.663 315.416C576.912 315.38 573.402 318.607 572.87 323.287Z" fill="#181C21"/>
<path d="M616.942 311.197V316.019C616.516 315.983 616.162 315.983 615.807 315.983C610.453 315.983 607.156 319.245 607.156 325.272V338.958H602.192V311.48H606.943V316.09C608.68 312.863 612.12 311.197 616.942 311.197Z" fill="#181C21"/>
<path d="M639.633 337.327C638.144 338.639 635.839 339.242 633.606 339.242C628.074 339.242 624.883 336.193 624.883 330.626V315.558H620.203V311.481H624.883V305.453H629.847V311.481H637.718V315.558H629.847V330.449C629.847 333.392 631.407 335.058 634.137 335.058C635.591 335.058 636.974 334.597 638.037 333.746L639.633 337.327Z" fill="#181C21"/>
<path d="M669.452 311.445L656.12 341.653C653.674 347.468 650.518 349.276 646.334 349.276C643.675 349.276 641.016 348.39 639.279 346.723L641.406 343C642.753 344.312 644.455 345.021 646.334 345.021C648.71 345.021 650.235 343.922 651.582 340.767L652.468 338.852L640.342 311.445H645.519L655.092 333.427L664.559 311.445H669.452Z" fill="#181C21"/>
</svg>
